<svg xmlns="http://www.w3.org/2000/svg" xmlns:xlink="http://www.w3.org/1999/xlink" width="500" zoomAndPan="magnify" viewBox="0 0 375 374.999991" height="500" preserveAspectRatio="xMidYMid meet" version="1.0"><defs><g/><clipPath id="4b684493ab"><path d="M 72.28125 157 L 94 157 L 94 223.8125 L 72.28125 223.8125 Z M 72.28125 157 " clip-rule="nonzero"/></clipPath><clipPath id="1455a7a89e"><path d="M 77 141.3125 L 132 141.3125 L 132 183 L 77 183 Z M 77 141.3125 " clip-rule="nonzero"/></clipPath><clipPath id="53a01e6a68"><path d="M 103 153 L 139.03125 153 L 139.03125 209 L 103 209 Z M 103 153 " clip-rule="nonzero"/></clipPath></defs><rect x="-37.5" width="450" fill="#ffffff" y="-37.499999" height="449.999989" fill-opacity="1"/><rect x="-37.5" width="450" fill="#ffffff" y="-37.499999" height="449.999989" fill-opacity="1"/><g fill="#3d3b39" fill-opacity="1"><g transform="translate(151.232133, 188.279152)"><g><path d="M 5.3125 -17.65625 L 5.3125 -3.53125 L 11.390625 -3.53125 L 11.390625 0 L 1.28125 0 L 1.28125 -17.65625 Z M 5.3125 -17.65625 "/></g></g></g><g fill="#3d3b39" fill-opacity="1"><g transform="translate(165.770187, 188.279152)"><g><path d="M 1.640625 -17.09375 C 2.085938 -17.539062 2.617188 -17.765625 3.234375 -17.765625 C 3.847656 -17.765625 4.375 -17.539062 4.8125 -17.09375 C 5.257812 -16.65625 5.484375 -16.128906 5.484375 -15.515625 C 5.484375 -14.898438 5.257812 -14.367188 4.8125 -13.921875 C 4.375 -13.484375 3.847656 -13.265625 3.234375 -13.265625 C 2.617188 -13.265625 2.085938 -13.484375 1.640625 -13.921875 C 1.203125 -14.367188 0.984375 -14.898438 0.984375 -15.515625 C 0.984375 -16.128906 1.203125 -16.65625 1.640625 -17.09375 Z M 1.28125 -10.984375 L 1.28125 0 L 5.078125 0 L 5.078125 -10.984375 Z M 1.28125 -10.984375 "/></g></g></g><g fill="#3d3b39" fill-opacity="1"><g transform="translate(174.677382, 188.279152)"><g><path d="M 1.921875 -10.984375 L 1.921875 -13.3125 C 1.941406 -14.957031 2.328125 -16.269531 3.078125 -17.25 C 3.835938 -18.238281 4.890625 -18.734375 6.234375 -18.734375 C 6.796875 -18.734375 7.335938 -18.648438 7.859375 -18.484375 C 8.378906 -18.316406 8.753906 -18.148438 8.984375 -17.984375 L 9.359375 -17.75 L 8.03125 -15.0625 C 7.6875 -15.269531 7.304688 -15.375 6.890625 -15.375 C 6.421875 -15.375 6.109375 -15.210938 5.953125 -14.890625 C 5.796875 -14.566406 5.71875 -14.003906 5.71875 -13.203125 L 5.71875 -10.984375 L 8.234375 -10.984375 L 8.234375 -8.09375 L 5.71875 -8.09375 L 5.71875 0 L 1.921875 0 L 1.921875 -8.09375 L 0.34375 -8.09375 L 0.34375 -10.984375 Z M 1.921875 -10.984375 "/></g></g></g><g fill="#3d3b39" fill-opacity="1"><g transform="translate(185.147509, 188.279152)"><g><path d="M 12.390625 -4.96875 L 4.4375 -4.96875 C 4.4375 -4.195312 4.679688 -3.625 5.171875 -3.25 C 5.671875 -2.882812 6.21875 -2.703125 6.8125 -2.703125 C 7.425781 -2.703125 7.910156 -2.78125 8.265625 -2.9375 C 8.617188 -3.101562 9.023438 -3.429688 9.484375 -3.921875 L 12.21875 -2.546875 C 11.082031 -0.628906 9.1875 0.328125 6.53125 0.328125 C 4.875 0.328125 3.453125 -0.238281 2.265625 -1.375 C 1.085938 -2.507812 0.5 -3.875 0.5 -5.46875 C 0.5 -7.070312 1.085938 -8.441406 2.265625 -9.578125 C 3.453125 -10.722656 4.875 -11.296875 6.53125 -11.296875 C 8.269531 -11.296875 9.6875 -10.789062 10.78125 -9.78125 C 11.875 -8.78125 12.421875 -7.347656 12.421875 -5.484375 C 12.421875 -5.222656 12.410156 -5.050781 12.390625 -4.96875 Z M 4.53125 -7.0625 L 8.71875 -7.0625 C 8.625 -7.632812 8.394531 -8.070312 8.03125 -8.375 C 7.664062 -8.6875 7.203125 -8.84375 6.640625 -8.84375 C 6.003906 -8.84375 5.5 -8.675781 5.125 -8.34375 C 4.757812 -8.019531 4.5625 -7.59375 4.53125 -7.0625 Z M 4.53125 -7.0625 "/></g></g></g><g fill="#3d3b39" fill-opacity="1"><g transform="translate(200.499145, 188.279152)"><g><path d="M 5.3125 -17.65625 L 5.3125 -3.53125 L 11.390625 -3.53125 L 11.390625 0 L 1.28125 0 L 1.28125 -17.65625 Z M 5.3125 -17.65625 "/></g></g></g><g fill="#3d3b39" fill-opacity="1"><g transform="translate(215.037197, 188.279152)"><g><path d="M 1.640625 -17.09375 C 2.085938 -17.539062 2.617188 -17.765625 3.234375 -17.765625 C 3.847656 -17.765625 4.375 -17.539062 4.8125 -17.09375 C 5.257812 -16.65625 5.484375 -16.128906 5.484375 -15.515625 C 5.484375 -14.898438 5.257812 -14.367188 4.8125 -13.921875 C 4.375 -13.484375 3.847656 -13.265625 3.234375 -13.265625 C 2.617188 -13.265625 2.085938 -13.484375 1.640625 -13.921875 C 1.203125 -14.367188 0.984375 -14.898438 0.984375 -15.515625 C 0.984375 -16.128906 1.203125 -16.65625 1.640625 -17.09375 Z M 1.28125 -10.984375 L 1.28125 0 L 5.078125 0 L 5.078125 -10.984375 Z M 1.28125 -10.984375 "/></g></g></g><g fill="#3d3b39" fill-opacity="1"><g transform="translate(223.944391, 188.279152)"><g><path d="M 1.28125 0 L 1.28125 -10.984375 L 5.078125 -10.984375 L 5.078125 -9.828125 L 5.109375 -9.828125 C 6.097656 -10.804688 7.148438 -11.296875 8.265625 -11.296875 C 8.804688 -11.296875 9.34375 -11.222656 9.875 -11.078125 C 10.414062 -10.941406 10.929688 -10.722656 11.421875 -10.421875 C 11.910156 -10.117188 12.304688 -9.691406 12.609375 -9.140625 C 12.921875 -8.597656 13.078125 -7.960938 13.078125 -7.234375 L 13.078125 0 L 9.296875 0 L 9.296875 -6.203125 C 9.296875 -6.773438 9.113281 -7.273438 8.75 -7.703125 C 8.382812 -8.128906 7.910156 -8.34375 7.328125 -8.34375 C 6.753906 -8.34375 6.234375 -8.117188 5.765625 -7.671875 C 5.304688 -7.234375 5.078125 -6.742188 5.078125 -6.203125 L 5.078125 0 Z M 1.28125 0 "/></g></g></g><g fill="#3d3b39" fill-opacity="1"><g transform="translate(240.537813, 188.279152)"><g><path d="M 13.828125 -10.984375 L 8.609375 -5.734375 L 14.34375 0 L 9.46875 0 L 5.078125 -4.390625 L 5.078125 0 L 1.28125 0 L 1.28125 -18.40625 L 5.078125 -18.40625 L 5.078125 -7.15625 L 8.90625 -10.984375 Z M 13.828125 -10.984375 "/></g></g></g><g fill="#3d3b39" fill-opacity="1"><g transform="translate(256.810086, 188.279152)"><g><path d="M 10.25 -17.65625 L 17.375 0 L 13.0625 0 L 11.75 -3.53125 L 5.03125 -3.53125 L 3.71875 0 L -0.59375 0 L 6.53125 -17.65625 Z M 10.375 -7.0625 L 8.40625 -12.203125 L 8.375 -12.203125 L 6.40625 -7.0625 Z M 10.375 -7.0625 "/></g></g></g><g fill="#3d3b39" fill-opacity="1"><g transform="translate(276.03696, 188.279152)"><g><path d="M 1.640625 -17.09375 C 2.085938 -17.539062 2.617188 -17.765625 3.234375 -17.765625 C 3.847656 -17.765625 4.375 -17.539062 4.8125 -17.09375 C 5.257812 -16.65625 5.484375 -16.128906 5.484375 -15.515625 C 5.484375 -14.898438 5.257812 -14.367188 4.8125 -13.921875 C 4.375 -13.484375 3.847656 -13.265625 3.234375 -13.265625 C 2.617188 -13.265625 2.085938 -13.484375 1.640625 -13.921875 C 1.203125 -14.367188 0.984375 -14.898438 0.984375 -15.515625 C 0.984375 -16.128906 1.203125 -16.65625 1.640625 -17.09375 Z M 1.28125 -10.984375 L 1.28125 0 L 5.078125 0 L 5.078125 -10.984375 Z M 1.28125 -10.984375 "/></g></g></g><g fill="#3d3b39" fill-opacity="1"><g transform="translate(151.232133, 199.932722)"><g><path d="M 0.390625 -5.421875 L 2.078125 -5.421875 C 2.585938 -5.421875 2.992188 -5.3125 3.296875 -5.09375 C 3.597656 -4.882812 3.75 -4.535156 3.75 -4.046875 C 3.75 -3.503906 3.523438 -3.113281 3.078125 -2.875 C 3.847656 -2.738281 4.234375 -2.285156 4.234375 -1.515625 C 4.234375 -1.054688 4.070312 -0.6875 3.75 -0.40625 C 3.4375 -0.132812 3.003906 0 2.453125 0 L 0.390625 0 Z M 1.625 -3.296875 L 1.734375 -3.296875 C 2.003906 -3.296875 2.207031 -3.34375 2.34375 -3.4375 C 2.476562 -3.539062 2.546875 -3.703125 2.546875 -3.921875 C 2.546875 -4.285156 2.273438 -4.46875 1.734375 -4.46875 L 1.625 -4.46875 Z M 1.625 -0.953125 L 2.015625 -0.953125 C 2.617188 -0.953125 2.921875 -1.15625 2.921875 -1.5625 C 2.921875 -1.800781 2.84375 -1.972656 2.6875 -2.078125 C 2.539062 -2.179688 2.316406 -2.234375 2.015625 -2.234375 L 1.625 -2.234375 Z M 1.625 -0.953125 "/></g></g></g><g fill="#3d3b39" fill-opacity="1"><g transform="translate(159.623802, 199.932722)"><g><path d="M 1.625 -5.421875 L 1.625 -1.078125 L 3.5 -1.078125 L 3.5 0 L 0.390625 0 L 0.390625 -5.421875 Z M 1.625 -5.421875 "/></g></g></g><g fill="#3d3b39" fill-opacity="1"><g transform="translate(167.350718, 199.932722)"><g><path d="M 0.15625 -2.71875 C 0.15625 -3.5 0.421875 -4.160156 0.953125 -4.703125 C 1.484375 -5.253906 2.128906 -5.53125 2.890625 -5.53125 C 3.648438 -5.53125 4.296875 -5.257812 4.828125 -4.71875 C 5.359375 -4.175781 5.625 -3.507812 5.625 -2.71875 C 5.625 -1.925781 5.359375 -1.257812 4.828125 -0.71875 C 4.304688 -0.175781 3.660156 0.09375 2.890625 0.09375 C 2.097656 0.09375 1.441406 -0.171875 0.921875 -0.703125 C 0.410156 -1.242188 0.15625 -1.914062 0.15625 -2.71875 Z M 1.484375 -2.71875 C 1.484375 -2.4375 1.523438 -2.175781 1.609375 -1.9375 C 1.703125 -1.695312 1.859375 -1.492188 2.078125 -1.328125 C 2.296875 -1.171875 2.566406 -1.09375 2.890625 -1.09375 C 3.347656 -1.09375 3.691406 -1.25 3.921875 -1.5625 C 4.160156 -1.882812 4.28125 -2.269531 4.28125 -2.71875 C 4.28125 -3.15625 4.160156 -3.53125 3.921875 -3.84375 C 3.679688 -4.164062 3.335938 -4.328125 2.890625 -4.328125 C 2.441406 -4.328125 2.09375 -4.164062 1.84375 -3.84375 C 1.601562 -3.53125 1.484375 -3.15625 1.484375 -2.71875 Z M 1.484375 -2.71875 "/></g></g></g><g fill="#3d3b39" fill-opacity="1"><g transform="translate(177.131138, 199.932722)"><g><path d="M 0.15625 -2.71875 C 0.15625 -3.5 0.421875 -4.160156 0.953125 -4.703125 C 1.484375 -5.253906 2.128906 -5.53125 2.890625 -5.53125 C 3.648438 -5.53125 4.296875 -5.257812 4.828125 -4.71875 C 5.359375 -4.175781 5.625 -3.507812 5.625 -2.71875 C 5.625 -1.925781 5.359375 -1.257812 4.828125 -0.71875 C 4.304688 -0.175781 3.660156 0.09375 2.890625 0.09375 C 2.097656 0.09375 1.441406 -0.171875 0.921875 -0.703125 C 0.410156 -1.242188 0.15625 -1.914062 0.15625 -2.71875 Z M 1.484375 -2.71875 C 1.484375 -2.4375 1.523438 -2.175781 1.609375 -1.9375 C 1.703125 -1.695312 1.859375 -1.492188 2.078125 -1.328125 C 2.296875 -1.171875 2.566406 -1.09375 2.890625 -1.09375 C 3.347656 -1.09375 3.691406 -1.25 3.921875 -1.5625 C 4.160156 -1.882812 4.28125 -2.269531 4.28125 -2.71875 C 4.28125 -3.15625 4.160156 -3.53125 3.921875 -3.84375 C 3.679688 -4.164062 3.335938 -4.328125 2.890625 -4.328125 C 2.441406 -4.328125 2.09375 -4.164062 1.84375 -3.84375 C 1.601562 -3.53125 1.484375 -3.15625 1.484375 -2.71875 Z M 1.484375 -2.71875 "/></g></g></g><g fill="#3d3b39" fill-opacity="1"><g transform="translate(186.911556, 199.932722)"><g><path d="M 0.390625 -5.421875 L 1.96875 -5.421875 C 2.71875 -5.421875 3.359375 -5.160156 3.890625 -4.640625 C 4.429688 -4.128906 4.703125 -3.488281 4.703125 -2.71875 C 4.703125 -1.9375 4.4375 -1.285156 3.90625 -0.765625 C 3.375 -0.253906 2.726562 0 1.96875 0 L 0.390625 0 Z M 1.625 -1.109375 L 1.828125 -1.109375 C 2.273438 -1.109375 2.640625 -1.257812 2.921875 -1.5625 C 3.210938 -1.863281 3.363281 -2.242188 3.375 -2.703125 C 3.375 -3.171875 3.226562 -3.554688 2.9375 -3.859375 C 2.644531 -4.171875 2.273438 -4.328125 1.828125 -4.328125 L 1.625 -4.328125 Z M 1.625 -1.109375 "/></g></g></g><g fill="#3d3b39" fill-opacity="1"><g transform="translate(195.777113, 199.932722)"><g/></g></g><g fill="#3d3b39" fill-opacity="1"><g transform="translate(201.582162, 199.932722)"><g><path d="M 0.390625 -5.421875 L 1.96875 -5.421875 C 2.71875 -5.421875 3.359375 -5.160156 3.890625 -4.640625 C 4.429688 -4.128906 4.703125 -3.488281 4.703125 -2.71875 C 4.703125 -1.9375 4.4375 -1.285156 3.90625 -0.765625 C 3.375 -0.253906 2.726562 0 1.96875 0 L 0.390625 0 Z M 1.625 -1.109375 L 1.828125 -1.109375 C 2.273438 -1.109375 2.640625 -1.257812 2.921875 -1.5625 C 3.210938 -1.863281 3.363281 -2.242188 3.375 -2.703125 C 3.375 -3.171875 3.226562 -3.554688 2.9375 -3.859375 C 2.644531 -4.171875 2.273438 -4.328125 1.828125 -4.328125 L 1.625 -4.328125 Z M 1.625 -1.109375 "/></g></g></g><g fill="#3d3b39" fill-opacity="1"><g transform="translate(210.447719, 199.932722)"><g><path d="M 0.15625 -2.71875 C 0.15625 -3.5 0.421875 -4.160156 0.953125 -4.703125 C 1.484375 -5.253906 2.128906 -5.53125 2.890625 -5.53125 C 3.648438 -5.53125 4.296875 -5.257812 4.828125 -4.71875 C 5.359375 -4.175781 5.625 -3.507812 5.625 -2.71875 C 5.625 -1.925781 5.359375 -1.257812 4.828125 -0.71875 C 4.304688 -0.175781 3.660156 0.09375 2.890625 0.09375 C 2.097656 0.09375 1.441406 -0.171875 0.921875 -0.703125 C 0.410156 -1.242188 0.15625 -1.914062 0.15625 -2.71875 Z M 1.484375 -2.71875 C 1.484375 -2.4375 1.523438 -2.175781 1.609375 -1.9375 C 1.703125 -1.695312 1.859375 -1.492188 2.078125 -1.328125 C 2.296875 -1.171875 2.566406 -1.09375 2.890625 -1.09375 C 3.347656 -1.09375 3.691406 -1.25 3.921875 -1.5625 C 4.160156 -1.882812 4.28125 -2.269531 4.28125 -2.71875 C 4.28125 -3.15625 4.160156 -3.53125 3.921875 -3.84375 C 3.679688 -4.164062 3.335938 -4.328125 2.890625 -4.328125 C 2.441406 -4.328125 2.09375 -4.164062 1.84375 -3.84375 C 1.601562 -3.53125 1.484375 -3.15625 1.484375 -2.71875 Z M 1.484375 -2.71875 "/></g></g></g><g fill="#3d3b39" fill-opacity="1"><g transform="translate(220.228136, 199.932722)"><g><path d="M 1.625 -3.375 L 1.625 0 L 0.390625 0 L 0.390625 -5.421875 L 1.625 -5.421875 L 3.78125 -2.0625 L 3.796875 -2.0625 L 3.796875 -5.421875 L 5.03125 -5.421875 L 5.03125 0 L 3.796875 0 L 1.640625 -3.375 Z M 1.625 -3.375 "/></g></g></g><g fill="#3d3b39" fill-opacity="1"><g transform="translate(229.672885, 199.932722)"><g><path d="M 1.625 -3.375 L 1.625 0 L 0.390625 0 L 0.390625 -5.421875 L 1.625 -5.421875 L 3.78125 -2.0625 L 3.796875 -2.0625 L 3.796875 -5.421875 L 5.03125 -5.421875 L 5.03125 0 L 3.796875 0 L 1.640625 -3.375 Z M 1.625 -3.375 "/></g></g></g><g fill="#3d3b39" fill-opacity="1"><g transform="translate(239.117629, 199.932722)"><g><path d="M 3.15625 -5.421875 L 5.34375 0 L 4.015625 0 L 3.609375 -1.078125 L 1.546875 -1.078125 L 1.140625 0 L -0.1875 0 L 2 -5.421875 Z M 3.1875 -2.171875 L 2.578125 -3.75 L 1.96875 -2.171875 Z M 3.1875 -2.171875 "/></g></g></g><g fill="#3d3b39" fill-opacity="1"><g transform="translate(248.285943, 199.932722)"><g><path d="M 0.046875 -4.34375 L 0.046875 -5.421875 L 3.875 -5.421875 L 3.875 -4.34375 L 2.578125 -4.34375 L 2.578125 0 L 1.34375 0 L 1.34375 -4.34375 Z M 0.046875 -4.34375 "/></g></g></g><g fill="#3d3b39" fill-opacity="1"><g transform="translate(256.216896, 199.932722)"><g><path d="M 1.625 -5.421875 L 1.625 0 L 0.390625 0 L 0.390625 -5.421875 Z M 1.625 -5.421875 "/></g></g></g><g fill="#3d3b39" fill-opacity="1"><g transform="translate(262.252311, 199.932722)"><g><path d="M 0.15625 -2.71875 C 0.15625 -3.5 0.421875 -4.160156 0.953125 -4.703125 C 1.484375 -5.253906 2.128906 -5.53125 2.890625 -5.53125 C 3.648438 -5.53125 4.296875 -5.257812 4.828125 -4.71875 C 5.359375 -4.175781 5.625 -3.507812 5.625 -2.71875 C 5.625 -1.925781 5.359375 -1.257812 4.828125 -0.71875 C 4.304688 -0.175781 3.660156 0.09375 2.890625 0.09375 C 2.097656 0.09375 1.441406 -0.171875 0.921875 -0.703125 C 0.410156 -1.242188 0.15625 -1.914062 0.15625 -2.71875 Z M 1.484375 -2.71875 C 1.484375 -2.4375 1.523438 -2.175781 1.609375 -1.9375 C 1.703125 -1.695312 1.859375 -1.492188 2.078125 -1.328125 C 2.296875 -1.171875 2.566406 -1.09375 2.890625 -1.09375 C 3.347656 -1.09375 3.691406 -1.25 3.921875 -1.5625 C 4.160156 -1.882812 4.28125 -2.269531 4.28125 -2.71875 C 4.28125 -3.15625 4.160156 -3.53125 3.921875 -3.84375 C 3.679688 -4.164062 3.335938 -4.328125 2.890625 -4.328125 C 2.441406 -4.328125 2.09375 -4.164062 1.84375 -3.84375 C 1.601562 -3.53125 1.484375 -3.15625 1.484375 -2.71875 Z M 1.484375 -2.71875 "/></g></g></g><g fill="#3d3b39" fill-opacity="1"><g transform="translate(272.032729, 199.932722)"><g><path d="M 1.625 -3.375 L 1.625 0 L 0.390625 0 L 0.390625 -5.421875 L 1.625 -5.421875 L 3.78125 -2.0625 L 3.796875 -2.0625 L 3.796875 -5.421875 L 5.03125 -5.421875 L 5.03125 0 L 3.796875 0 L 1.640625 -3.375 Z M 1.625 -3.375 "/></g></g></g><g clip-path="url(#4b684493ab)"><path fill="#ff3131" d="M 88.710938 224 C 88.714844 223.988281 106.714844 170.28125 72.835938 157.578125 C 72.835938 157.578125 74.015625 159.179688 75.210938 161.09375 C 73.347656 165.257812 72.308594 169.871094 72.308594 174.730469 C 72.308594 186.085938 77.976562 196.113281 86.632812 202.152344 C 89.195312 212.882812 88.710938 223.996094 88.710938 224 " fill-opacity="1" fill-rule="nonzero"/></g><g clip-path="url(#1455a7a89e)"><path fill="#ff3131" d="M 106.984375 153.820312 C 111.769531 153.121094 116.21875 156.433594 116.921875 161.21875 C 117.621094 166.003906 114.3125 170.453125 109.523438 171.152344 C 104.738281 171.855469 100.289062 168.542969 99.589844 163.757812 C 98.886719 158.972656 102.199219 154.523438 106.984375 153.820312 Z M 105.835938 182.625 C 105.835938 182.625 127.351562 163.511719 131.996094 141.523438 C 131.996094 141.523438 129.902344 145.265625 126.796875 148.8125 C 121.046875 144.132812 113.710938 141.324219 105.714844 141.324219 C 93.546875 141.324219 82.902344 147.832031 77.0625 157.554688 C 83.574219 158.207031 96.300781 162.265625 105.835938 182.625 " fill-opacity="1" fill-rule="nonzero"/></g><g clip-path="url(#53a01e6a68)"><path fill="#ff3131" d="M 131.703125 153.738281 C 129.972656 165.300781 123.773438 184.390625 103.707031 208.074219 C 104.371094 208.113281 105.042969 208.136719 105.714844 208.136719 C 124.167969 208.136719 139.125 193.179688 139.125 174.730469 C 139.125 166.777344 136.34375 159.476562 131.703125 153.738281 " fill-opacity="1" fill-rule="nonzero"/></g></svg>